<svg id="visual" viewBox="0 0 900 450" width="900" height="450" xmlns="http://www.w3.org/2000/svg" xmlns:xlink="http://www.w3.org/1999/xlink" version="1.1"><path d="M0 163L13.7 147.3C27.3 131.7 54.7 100.3 82 95.2C109.3 90 136.7 111 163.8 125.2C191 139.3 218 146.7 245.2 148.2C272.3 149.7 299.7 145.3 327 131.2C354.3 117 381.7 93 409 93C436.3 93 463.7 117 491 133.5C518.3 150 545.7 159 573 160.5C600.3 162 627.7 156 654.8 154.5C682 153 709 156 736.2 151.5C763.3 147 790.7 135 818 135C845.3 135 872.7 147 886.3 153L900 159L900 0L886.3 0C872.7 0 845.3 0 818 0C790.7 0 763.3 0 736.2 0C709 0 682 0 654.8 0C627.7 0 600.3 0 573 0C545.7 0 518.3 0 491 0C463.7 0 436.3 0 409 0C381.7 0 354.3 0 327 0C299.7 0 272.3 0 245.2 0C218 0 191 0 163.8 0C136.7 0 109.3 0 82 0C54.7 0 27.3 0 13.7 0L0 0Z" fill="#00183b"></path><path d="M0 213L13.7 194.2C27.3 175.3 54.7 137.7 82 136.2C109.3 134.7 136.7 169.3 163.8 190.3C191 211.3 218 218.7 245.2 215.7C272.3 212.7 299.7 199.3 327 184.3C354.3 169.3 381.7 152.7 409 149.7C436.3 146.7 463.7 157.3 491 168.7C518.3 180 545.7 192 573 198.7C600.3 205.3 627.7 206.7 654.8 206.7C682 206.7 709 205.3 736.2 202.3C763.3 199.3 790.7 194.7 818 193.2C845.3 191.7 872.7 193.3 886.3 194.2L900 195L900 157L886.3 151C872.7 145 845.3 133 818 133C790.7 133 763.3 145 736.2 149.5C709 154 682 151 654.8 152.5C627.7 154 600.3 160 573 158.5C545.7 157 518.3 148 491 131.5C463.7 115 436.3 91 409 91C381.7 91 354.3 115 327 129.2C299.7 143.3 272.3 147.7 245.2 146.2C218 144.7 191 137.3 163.8 123.2C136.7 109 109.3 88 82 93.2C54.7 98.3 27.3 129.7 13.7 145.3L0 161Z" fill="#001336"></path><path d="M0 258L13.7 245.2C27.3 232.3 54.7 206.7 82 211.2C109.3 215.7 136.7 250.3 163.8 274.3C191 298.3 218 311.7 245.2 305.7C272.3 299.7 299.7 274.3 327 255.7C354.3 237 381.7 225 409 222C436.3 219 463.7 225 491 240.7C518.3 256.3 545.7 281.7 573 289.8C600.3 298 627.7 289 654.8 280.8C682 272.7 709 265.3 736.2 258.7C763.3 252 790.7 246 818 246.7C845.3 247.3 872.7 254.7 886.3 258.3L900 262L900 193L886.3 192.2C872.7 191.3 845.3 189.7 818 191.2C790.7 192.7 763.3 197.3 736.2 200.3C709 203.3 682 204.7 654.8 204.7C627.7 204.7 600.3 203.3 573 196.7C545.7 190 518.3 178 491 166.7C463.7 155.3 436.3 144.7 409 147.7C381.7 150.7 354.3 167.3 327 182.3C299.7 197.3 272.3 210.7 245.2 213.7C218 216.7 191 209.3 163.8 188.3C136.7 167.3 109.3 132.7 82 134.2C54.7 135.7 27.3 173.3 13.7 192.2L0 211Z" fill="#000d31"></path><path d="M0 289L13.7 286C27.3 283 54.7 277 82 281.5C109.3 286 136.7 301 163.8 320.5C191 340 218 364 245.2 361.8C272.3 359.7 299.7 331.3 327 314.2C354.3 297 381.7 291 409 293.2C436.3 295.3 463.7 305.7 491 316.8C518.3 328 545.7 340 573 342.3C600.3 344.7 627.7 337.3 654.8 337.3C682 337.3 709 344.7 736.2 334.8C763.3 325 790.7 298 818 295C845.3 292 872.7 313 886.3 323.5L900 334L900 260L886.3 256.3C872.7 252.7 845.3 245.3 818 244.7C790.7 244 763.3 250 736.2 256.7C709 263.3 682 270.7 654.8 278.8C627.7 287 600.3 296 573 287.8C545.7 279.7 518.3 254.3 491 238.7C463.7 223 436.3 217 409 220C381.7 223 354.3 235 327 253.7C299.7 272.3 272.3 297.7 245.2 303.7C218 309.7 191 296.3 163.8 272.3C136.7 248.3 109.3 213.7 82 209.2C54.7 204.7 27.3 230.3 13.7 243.2L0 256Z" fill="#00042c"></path><path d="M0 451L13.7 451C27.3 451 54.7 451 82 451C109.3 451 136.7 451 163.8 451C191 451 218 451 245.2 451C272.3 451 299.7 451 327 451C354.3 451 381.7 451 409 451C436.3 451 463.7 451 491 451C518.3 451 545.7 451 573 451C600.3 451 627.7 451 654.8 451C682 451 709 451 736.2 451C763.3 451 790.7 451 818 451C845.3 451 872.7 451 886.3 451L900 451L900 332L886.3 321.5C872.7 311 845.3 290 818 293C790.7 296 763.3 323 736.2 332.8C709 342.7 682 335.3 654.8 335.3C627.7 335.3 600.3 342.7 573 340.3C545.7 338 518.3 326 491 314.8C463.7 303.7 436.3 293.3 409 291.2C381.7 289 354.3 295 327 312.2C299.7 329.3 272.3 357.7 245.2 359.8C218 362 191 338 163.8 318.5C136.7 299 109.3 284 82 279.5C54.7 275 27.3 281 13.7 284L0 287Z" fill="#000000"></path></svg>